<svg id="visual" viewBox="0 0 900 600" width="900" height="600" xmlns="http://www.w3.org/2000/svg" xmlns:xlink="http://www.w3.org/1999/xlink" version="1.1"><path d="M0 115L13.7 108C27.3 101 54.7 87 82 81C109.3 75 136.7 77 163.8 77C191 77 218 75 245.2 79C272.3 83 299.7 93 327 107C354.3 121 381.7 139 409 147C436.3 155 463.7 153 491 149C518.3 145 545.7 139 573 134C600.3 129 627.7 125 654.8 125C682 125 709 129 736.2 130C763.3 131 790.7 129 818 118C845.3 107 872.7 87 886.3 77L900 67L900 0L886.3 0C872.7 0 845.3 0 818 0C790.7 0 763.3 0 736.2 0C709 0 682 0 654.8 0C627.7 0 600.3 0 573 0C545.7 0 518.3 0 491 0C463.7 0 436.3 0 409 0C381.7 0 354.3 0 327 0C299.7 0 272.3 0 245.2 0C218 0 191 0 163.8 0C136.7 0 109.3 0 82 0C54.7 0 27.3 0 13.7 0L0 0Z" fill="#8b97c3"></path><path d="M0 199L13.7 192C27.3 185 54.7 171 82 162C109.3 153 136.7 149 163.8 153C191 157 218 169 245.2 169C272.3 169 299.7 157 327 174C354.3 191 381.7 237 409 251C436.3 265 463.7 247 491 242C518.3 237 545.7 245 573 248C600.3 251 627.7 249 654.8 241C682 233 709 219 736.2 215C763.3 211 790.7 217 818 209C845.3 201 872.7 179 886.3 168L900 157L900 65L886.3 75C872.7 85 845.3 105 818 116C790.7 127 763.3 129 736.2 128C709 127 682 123 654.8 123C627.7 123 600.3 127 573 132C545.7 137 518.3 143 491 147C463.7 151 436.3 153 409 145C381.7 137 354.3 119 327 105C299.7 91 272.3 81 245.2 77C218 73 191 75 163.8 75C136.7 75 109.3 73 82 79C54.7 85 27.3 99 13.7 106L0 113Z" fill="#7181b6"></path><path d="M0 433L13.7 425C27.3 417 54.7 401 82 380C109.3 359 136.7 333 163.8 327C191 321 218 335 245.2 342C272.3 349 299.7 349 327 365C354.3 381 381.7 413 409 409C436.3 405 463.7 365 491 347C518.3 329 545.7 333 573 356C600.3 379 627.7 421 654.8 424C682 427 709 391 736.2 371C763.3 351 790.7 347 818 333C845.3 319 872.7 295 886.3 283L900 271L900 155L886.3 166C872.7 177 845.3 199 818 207C790.7 215 763.3 209 736.2 213C709 217 682 231 654.8 239C627.7 247 600.3 249 573 246C545.7 243 518.3 235 491 240C463.7 245 436.3 263 409 249C381.7 235 354.3 189 327 172C299.7 155 272.3 167 245.2 167C218 167 191 155 163.8 151C136.7 147 109.3 151 82 160C54.7 169 27.3 183 13.7 190L0 197Z" fill="#576ca8"></path><path d="M0 499L13.7 496C27.3 493 54.7 487 82 466C109.3 445 136.7 409 163.8 403C191 397 218 421 245.2 431C272.3 441 299.7 437 327 443C354.3 449 381.7 465 409 453C436.3 441 463.7 401 491 385C518.3 369 545.7 377 573 404C600.3 431 627.7 477 654.8 480C682 483 709 443 736.2 422C763.3 401 790.7 399 818 389C845.3 379 872.7 361 886.3 352L900 343L900 269L886.3 281C872.7 293 845.3 317 818 331C790.7 345 763.3 349 736.2 369C709 389 682 425 654.8 422C627.7 419 600.3 377 573 354C545.7 331 518.3 327 491 345C463.7 363 436.3 403 409 407C381.7 411 354.3 379 327 363C299.7 347 272.3 347 245.2 340C218 333 191 319 163.8 325C136.7 331 109.3 357 82 378C54.7 399 27.3 415 13.7 423L0 431Z" fill="#4b5d91"></path><path d="M0 601L13.7 601C27.3 601 54.7 601 82 601C109.3 601 136.7 601 163.8 601C191 601 218 601 245.2 601C272.3 601 299.7 601 327 601C354.3 601 381.7 601 409 601C436.3 601 463.7 601 491 601C518.3 601 545.7 601 573 601C600.3 601 627.7 601 654.8 601C682 601 709 601 736.2 601C763.3 601 790.7 601 818 601C845.3 601 872.7 601 886.3 601L900 601L900 341L886.3 350C872.7 359 845.3 377 818 387C790.7 397 763.3 399 736.2 420C709 441 682 481 654.8 478C627.7 475 600.3 429 573 402C545.7 375 518.3 367 491 383C463.7 399 436.3 439 409 451C381.7 463 354.3 447 327 441C299.7 435 272.3 439 245.2 429C218 419 191 395 163.8 401C136.7 407 109.3 443 82 464C54.7 485 27.3 491 13.7 494L0 497Z" fill="#404f7b"></path></svg>